<svg
  width="60"
  height="60"
  viewBox="0 0 60 60"
  fill="none"
  xmlns="http://www.w3.org/2000/svg"
>
<path
    d="M28.9082 42.2787C28.983 42.4283 29.2121 42.5826 29.3991 42.5826H29.6983C29.8853 42.5826 30.222 42.5826 30.409 42.5826H30.7082C30.8952 42.5826 31.1243 42.433 31.1991 42.2787L36.5666 28.6113C36.9032 27.9006 37.1697 27.938 37.1697 28.7282V37.1026C37.1697 37.9302 36.7208 38.5708 36.1972 38.5708C35.6689 38.5708 35.2574 39.2067 35.2574 40.0343V43.4897H44.3792V41.0115L44.4166 40.0343C44.4166 39.2114 43.9678 38.5708 43.4395 38.5708C42.9906 38.5708 42.654 38.1546 42.4997 37.5935V23.6549C42.4997 22.8647 42.8784 22.2288 43.4395 22.2288C43.9678 22.2288 44.4166 21.5555 44.4166 20.7653V16.9358H36.1177L29.9227 31.8049L23.7278 16.9358H15.3541V20.7653C15.3541 21.5555 15.7655 22.2288 16.2938 22.2288C16.8549 22.2288 17.2663 22.8694 17.2663 23.6549V37.0979C17.2663 37.9255 16.8549 38.5661 16.2938 38.5661C15.7655 38.5661 15.3541 39.202 15.3541 40.0296L15.3167 43.485H24.4805V40.0296C24.4805 39.2067 24.0644 38.5661 23.5408 38.5661C23.0171 38.5661 22.5636 37.9255 22.5636 37.0979V28.7235C22.5636 27.9333 22.8254 27.9006 23.1667 28.6066L28.9082 42.2787Z"
    fill="#EB002B"
  />
<path
    d="M29.9977 0C46.516 0 60 13.4804 60 30C60 46.5243 46.5207 60 29.9977 60C13.4793 60 1.21593e-06 46.5243 1.21593e-06 30C-0.00467423 13.4804 13.4746 0 29.9977 0ZM29.9977 5.97101C16.7802 5.97101 5.97055 16.7488 5.97055 30C5.97055 43.2185 16.7849 54.029 29.9977 54.029C43.2526 54.029 54.0295 43.2138 54.0295 30C54.0248 16.7488 43.2526 5.97101 29.9977 5.97101Z"
    fill="#EB002B"
  />
</svg>
